<svg id="back_white" xmlns="http://www.w3.org/2000/svg" width="18.676" height="13.689" viewBox="0 0 18.676 13.689">
  <path id="Path" d="M17.4,5.8H3.555L7.581,1.778A1.041,1.041,0,1,0,6.109.306l-5.8,5.8a1.024,1.024,0,0,0-.13.158C.16,6.29.15,6.316.135,6.34a1.184,1.184,0,0,0-.055.106.924.924,0,0,0-.029.094c-.01.035-.023.067-.031.1A.906.906,0,0,0,0,6.8c0,.014,0,.028,0,.041s0,.031,0,.048a1.011,1.011,0,0,0,.016.155c.008.038.021.071.032.108a.612.612,0,0,0,.028.086,1,1,0,0,0,.06.116c.012.021.021.043.034.064a1.065,1.065,0,0,0,.132.161l5.8,5.8A1.041,1.041,0,0,0,7.58,11.912L3.556,7.886h8.13l-1-.006H17.4a1.173,1.173,0,0,0,1.271-1.038A1.173,1.173,0,0,0,17.4,5.8Z" transform="translate(0)" fill="#fff"/>
</svg>
