<svg xmlns="http://www.w3.org/2000/svg" width="19" height="14" viewBox="0 0 19 14">
    <g fill="none" fill-rule="evenodd">
        <g fill="#000" fill-rule="nonzero">
            <g>
                <path d="M17.405 5.804h-6.719l-7.131-.001L7.58 1.778c.407-.407.407-1.066 0-1.472-.406-.408-1.065-.408-1.472 0L.306 6.108c-.049.049-.092.102-.13.159-.016.023-.026.05-.04.073-.02.035-.04.068-.056.106-.013.031-.02.063-.029.094-.01.034-.023.066-.03.102-.011.052-.016.107-.017.16 0 .014-.004.028-.004.042 0 .017.004.032.005.048.002.052.006.104.016.155.008.038.02.072.031.108.008.03.016.059.028.086.017.041.038.079.06.116.011.021.021.044.034.064.04.058.083.112.132.161l5.802 5.802c.203.203.47.305.737.305.266 0 .531-.101.735-.305.407-.406.407-1.066 0-1.472L3.556 7.886h8.13l-1-.007h6.719c.701 0 1.27-.465 1.27-1.037 0-.573-.569-1.038-1.27-1.038z" transform="translate(-20.000000, -61.000000) translate(20.000000, 61.000000)"/>
            </g>
        </g>
    </g>
</svg>
