<svg xmlns="http://www.w3.org/2000/svg" width="12" height="12" viewBox="0 0 12 12">
    <g fill="none" fill-rule="evenodd">
        <g fill="#8097E6" fill-rule="nonzero">
            <g>
                <g>
                    <g>
                        <path d="M6 0C2.688 0 0 2.69 0 6c0 3.311 2.689 6 6 6 3.31 0 6-2.689 6-6 0-3.31-2.69-6-6-6zm2.637 3.278c.22 0 .44.082.605.249.333.332.333.88 0 1.212L5.606 8.375c-.332.333-.88.333-1.213 0L2.778 6.76c-.333-.332-.333-.88 0-1.212.332-.332.88-.332 1.211 0L5 6.557l3.032-3.03c.166-.167.386-.25.606-.25z" transform="translate(-96.000000, -297.000000) translate(15.000000, 252.000000) translate(81.000000, 41.000000) translate(0.000000, 4.000000)"/>
                    </g>
                </g>
            </g>
        </g>
    </g>
</svg>
