<svg xmlns="http://www.w3.org/2000/svg" width="7" height="12" viewBox="0 0 7 12">
    <g fill="none" fill-rule="evenodd">
        <g fill="#ADADAD" fill-rule="nonzero">
            <g>
                <g>
                    <path d="M2.651 6l3.64-3.858c.362-.385.362-1.008 0-1.392-.362-.384-.951-.385-1.314 0L.71 5.274c-.189.2-.28.467-.271.73-.006.26.084.523.271.722l4.268 4.524c.363.384.951.385 1.314 0 .361-.383.362-1.007 0-1.392L2.65 6z" transform="translate(-344 -317) translate(88 313) matrix(1 0 0 -1 256 16) rotate(-180 3.5 6)"/>
                </g>
            </g>
        </g>
    </g>
</svg>
