<svg xmlns="http://www.w3.org/2000/svg" width="15" height="15" viewBox="0 0 15 15">
    <g fill="none" fill-rule="evenodd">
        <g fill="#000" fill-rule="nonzero">
            <g>
                <path d="M8.669 7.505l6.094-6.096c.316-.316.316-.832 0-1.165-.317-.333-.833-.317-1.166 0L7.503 6.339 1.41.244C1.093-.073.577-.073.244.244c-.333.316-.317.832 0 1.165l6.094 6.096-6.094 6.096c-.317.316-.317.833 0 1.166.166.166.366.233.582.233.217 0 .417-.083.583-.233L7.503 8.67l6.094 6.096c.167.166.367.233.583.233.216 0 .416-.083.583-.233.316-.317.316-.833 0-1.166L8.669 7.505z" transform="translate(-349 -60) translate(349 60)"/>
            </g>
        </g>
    </g>
</svg>
