<svg xmlns="http://www.w3.org/2000/svg" width="15" height="13" viewBox="0 0 15 13">
    <g fill="none" fill-rule="evenodd">
        <g fill="#777" fill-rule="nonzero">
            <g>
                <g>
                    <g transform="translate(-334.000000, -766.000000) translate(265.000000, 764.000000) translate(69.000000, 0.000000) translate(0.000000, 2.000000)">
                        <path d="M14.747 7.823c0-.311-.11-.607-.3-.829.348-.251.553-.636.553-1.08 0-.754-.647-1.36-1.453-1.36-.568 0-1.39 0-2.1.014-.315.015-.963.015-1.863-.014.38-1.08.853-2.456.948-2.93.142-.71-.285-1.33-1.074-1.553-.79-.221-1.595.09-1.863.71-.442 1.021-1.832 3.418-3.332 4.29-.031.015-.063.045-.095.074-.205-.162-.473-.266-.757-.266H1.184C.521 4.879 0 5.382 0 5.989v5.428c0 .621.537 1.11 1.184 1.11H3.38c.363 0 .695-.163.916-.4.647.444 1.8.873 3.126.873h5.368c.806 0 1.453-.606 1.453-1.36 0-.312-.11-.607-.3-.83.347-.25.553-.635.553-1.08 0-.31-.11-.606-.3-.827.331-.252.552-.637.552-1.08zM3.711 11.432c0 .163-.143.296-.316.296h-2.21c-.174 0-.317-.133-.317-.296V5.988c0-.162.143-.295.316-.295H3.38c.174 0 .316.133.316.295v5.444h.016zm9.836-4.97H13.5c-.205 0-.379.148-.395.34v.06c-.016.191.11.369.3.413.237.06.442.252.458.474.032.325-.237.606-.584.606h-.047c-.206 0-.38.148-.395.34v.06c-.016.192.11.37.3.414.237.059.442.251.458.473.031.326-.237.607-.584.607h-.048c-.205 0-.379.148-.395.34v.059c-.015.192.11.37.3.414.237.06.443.252.458.474.032.325-.237.606-.584.606H7.374c-1.548 0-2.637-.65-2.842-.902l.015-5.326c0-.088.048-.162.127-.207 1.831-1.05 3.315-3.801 3.679-4.674.11-.251.49-.31.805-.222.174.044.553.192.474.621-.064.326-.395 1.361-.916 2.81-.032.09-.048.193-.048.282.016.488.427.828.885.828h1.879c.679-.014 1.5-.014 2.052-.014.284 0 .537.177.6.443.11.385-.173.68-.537.68z"/>
                        <circle cx="2.289" cy="10.337" r="1"/>
                    </g>
                </g>
            </g>
        </g>
    </g>
</svg>
