<svg xmlns="http://www.w3.org/2000/svg" width="14" height="15" viewBox="0 0 14 15">
  <g id="address_copy" opacity="0.3">
    <path id="Shape" d="M2.45,12.534A2.338,2.338,0,0,1,0,10.331V2.2A2.338,2.338,0,0,1,2.45,0H8.841a2.338,2.338,0,0,1,2.45,2.2v8.128a2.338,2.338,0,0,1-2.45,2.2Z" transform="translate(0 2.466)"/>
    <path id="Path" d="M9.683,11.712a.664.664,0,0,1-.7-.632V3.639A2.519,2.519,0,0,0,6.334,1.263H.7A.664.664,0,0,1,0,.632.664.664,0,0,1,.7,0h5.63a3.864,3.864,0,0,1,4.054,3.639v7.442a.672.672,0,0,1-.7.632Z" transform="translate(3.613)"/>
  </g>
</svg>
