<svg xmlns="http://www.w3.org/2000/svg" xmlns:xlink="http://www.w3.org/1999/xlink" width="375" height="134" viewBox="0 0 375 134">
  <defs>
    <filter id="Combined_Shape_Copy_3" x="0" y="0" width="375" height="134" filterUnits="userSpaceOnUse">
      <feOffset dy="3" input="SourceAlpha"/>
      <feGaussianBlur stdDeviation="2.5" result="blur"/>
      <feFlood flood-opacity="0.102"/>
      <feComposite operator="in" in2="blur"/>
      <feComposite in="SourceGraphic"/>
    </filter>
    <clipPath id="clip-path">
      <rect id="Mask" width="96" height="45" fill="none"/>
    </clipPath>
  </defs>
  <g id="coupon_templete" transform="translate(2.5 2.5)">
    <g transform="matrix(1, 0, 0, 1, -2.5, -2.5)" filter="url(#Combined_Shape_Copy_3)">
      <path id="Combined_Shape_Copy_3-2" data-name="Combined Shape Copy 3" d="M350,119H10A10.011,10.011,0,0,1,0,109V10A10.011,10.011,0,0,1,10,0H350a10.011,10.011,0,0,1,10,10V45a15,15,0,1,0,0,30v34A10.011,10.011,0,0,1,350,119Z" transform="translate(7.5 4.5)" fill="#fff"/>
    </g>
    <g id="Group_Copy_4" data-name="Group Copy 4" transform="translate(261 2)" opacity="0.06">
      <rect id="Mask-2" data-name="Mask" width="96" height="45" fill="none"/>
      <g id="Group_Copy_4-2" data-name="Group Copy 4" clip-path="url(#clip-path)">
        <g id="Group_Copy_3" data-name="Group Copy 3" transform="matrix(0.966, 0.259, -0.259, 0.966, 21.214, -18.793)">
          <path id="Shape" d="M10.381,46a1.385,1.385,0,0,1-1.4-1.375A7.5,7.5,0,0,0,1.4,37.212,1.385,1.385,0,0,1,0,35.837V10.163A1.385,1.385,0,0,1,1.4,8.788,7.5,7.5,0,0,0,8.976,1.375,1.385,1.385,0,0,1,10.381,0H63.69a1.385,1.385,0,0,1,1.4,1.375,7.5,7.5,0,0,0,7.572,7.412,1.275,1.275,0,0,1,1.327,1.375V35.837a1.385,1.385,0,0,1-1.4,1.375,7.5,7.5,0,0,0-7.571,7.412A1.385,1.385,0,0,1,63.613,46Z" transform="translate(0)"/>
          <path id="Shape-2" data-name="Shape" d="M9.288,35a1.367,1.367,0,0,1-1.327-.841A13.057,13.057,0,0,0,.859,27.2,1.411,1.411,0,0,1,0,25.9V9.093a1.338,1.338,0,0,1,.859-1.3A13.054,13.054,0,0,0,7.961.841,1.445,1.445,0,0,1,9.288,0H53.465a1.37,1.37,0,0,1,1.327.841,13.054,13.054,0,0,0,7.1,6.953,1.411,1.411,0,0,1,.859,1.3V25.9a1.338,1.338,0,0,1-.859,1.3,13.057,13.057,0,0,0-7.1,6.953A1.445,1.445,0,0,1,53.465,35Z" transform="translate(5.62 5.502)"/>
          <path id="Path" d="M12.214,4.069,8.545,3.84c-.078,0-.078,0-.156-.076L6.984.4A.628.628,0,0,0,5.814.4l-1.4,3.362c0,.076-.078.076-.156.076L.584,4.069a.63.63,0,0,0-.39,1.07L3,7.507c.078,0,.078.076.078.153l-.859,3.515a.626.626,0,0,0,.937.688l3.122-1.91h.156l3.122,1.91a.626.626,0,0,0,.937-.688L9.638,7.66c0-.076,0-.076.078-.153l2.81-2.369A.585.585,0,0,0,12.214,4.069Z" transform="translate(47.73 16.715)"/>
          <path id="Path-2" data-name="Path" d="M12.214,4.069,8.545,3.84c-.078,0-.078,0-.156-.076L6.984.4A.628.628,0,0,0,5.814.4l-1.4,3.362c0,.076-.078.076-.156.076L.584,4.069a.63.63,0,0,0-.39,1.07L3,7.507c.078,0,.078.076.078.153l-.859,3.515a.626.626,0,0,0,.937.688l3.122-1.91h.156l3.122,1.91a.626.626,0,0,0,.937-.688L9.638,7.66c0-.076,0-.076.078-.153l2.81-2.369A.567.567,0,0,0,12.214,4.069Z" transform="translate(30.559 16.715)"/>
          <path id="Path-3" data-name="Path" d="M12.214,4.069,8.545,3.84c-.078,0-.078,0-.156-.076L6.984.4A.628.628,0,0,0,5.814.4l-1.4,3.362c0,.076-.078.076-.156.076L.584,4.069a.63.63,0,0,0-.39,1.07L3,7.507c.078,0,.078.076.078.153l-.859,3.515a.626.626,0,0,0,.937.688l3.122-1.91h.156l3.122,1.91a.626.626,0,0,0,.937-.688L9.638,7.66c0-.076,0-.076.078-.153l2.81-2.369A.585.585,0,0,0,12.214,4.069Z" transform="translate(13.465 16.715)"/>
        </g>
      </g>
    </g>
    <path id="Rectangle_Copy" data-name="Rectangle Copy" d="M10,0H76a0,0,0,0,1,0,0V119a0,0,0,0,1,0,0H10A10,10,0,0,1,0,109V10A10,10,0,0,1,10,0Z" transform="translate(5 2)" fill="#f2e2f6"/>
  </g>
</svg>
