<svg xmlns="http://www.w3.org/2000/svg" xmlns:xlink="http://www.w3.org/1999/xlink" width="375" height="134" viewBox="0 0 375 134">
  <defs>
    <filter id="Combined_Shape_Copy_2" x="0" y="0" width="375" height="134" filterUnits="userSpaceOnUse">
      <feOffset dy="3" input="SourceAlpha"/>
      <feGaussianBlur stdDeviation="2.5" result="blur"/>
      <feFlood flood-opacity="0.102"/>
      <feComposite operator="in" in2="blur"/>
      <feComposite in="SourceGraphic"/>
    </filter>
    <clipPath id="clip-path">
      <rect id="Mask" width="96" height="45" fill="none"/>
    </clipPath>
  </defs>
  <g id="coupon" transform="translate(2.5 2.5)">
    <g id="coupon_templete">
      <g transform="matrix(1, 0, 0, 1, -2.5, -2.5)" filter="url(#Combined_Shape_Copy_2)">
        <g id="Combined_Shape_Copy_2-2" data-name="Combined Shape Copy 2" transform="translate(7.5 4.5)" fill="#fff" stroke-miterlimit="10">
          <path d="M 350.0001220703125 118.4998092651367 L 9.999909400939941 118.4998092651367 C 4.761636257171631 118.4998092651367 0.5 114.2381744384766 0.5 108.9999008178711 L 0.5 9.999900817871094 C 0.5 4.761628150939941 4.761636257171631 0.4999917149543762 9.999909400939941 0.4999917149543762 L 350.0001220703125 0.4999917149543762 C 355.2383728027344 0.4999917149543762 359.5 4.761628150939941 359.5 9.999900817871094 L 359.5 44.50796890258789 C 355.5462036132812 44.63327407836914 351.8481140136719 46.23142623901367 349.0396423339844 49.03994750976562 C 346.1119995117188 51.96753692626953 344.4996948242188 55.85999298095703 344.4996948242188 60.00030899047852 C 344.4996948242188 64.14022064208984 346.1119995117188 68.03244781494141 349.0396423339844 70.95989990234375 C 351.8492126464844 73.76933288574219 355.547119140625 75.36747741699219 359.5 75.49185943603516 L 359.5 108.9999008178711 C 359.5 114.2381744384766 355.2383728027344 118.4998092651367 350.0001220703125 118.4998092651367 Z" stroke="none"/>
          <path d="M 350.0001525878906 117.9998016357422 C 354.9627075195312 117.9998016357422 359 113.9624481201172 359 108.9999008178711 L 359 75.96916198730469 C 355.1022644042969 75.73049163818359 351.4713134765625 74.09862518310547 348.6860961914062 71.31349945068359 C 345.6640625 68.29154968261719 343.9996948242188 64.2738037109375 343.9996948242188 60.00030136108398 C 343.9996948242188 55.7264518737793 345.6640625 51.70840072631836 348.6860961914062 48.6864013671875 C 351.4703063964844 45.90215301513672 355.1015014648438 44.27024078369141 359 44.03073883056641 L 359 9.999900817871094 C 359 5.037350654602051 354.9627075195312 1.000000834465027 350.0001525878906 1.000000834465027 L 9.999899864196777 1.000000834465027 C 5.037350177764893 1.000000834465027 1 5.037350654602051 1 9.999900817871094 L 1 108.9999008178711 C 1 113.9624481201172 5.037350177764893 117.9998016357422 9.999899864196777 117.9998016357422 L 350.0001525878906 117.9998016357422 M 350.0001525878906 118.9998016357422 L 9.999899864196777 118.9998016357422 C 4.485949993133545 118.9998016357422 0 114.5138473510742 0 108.9999008178711 L 0 9.999900817871094 C 0 4.485950946807861 4.485949993133545 8.178710686479462e-07 9.999899864196777 8.178710686479462e-07 L 350.0001525878906 8.178710686479462e-07 C 355.5140991210938 8.178710686479462e-07 360 4.485950946807861 360 9.999900817871094 L 360 45 C 355.9909057617188 45.00099945068359 352.2257080078125 46.56095123291016 349.3931884765625 49.39350128173828 C 346.5599975585938 52.22665023803711 344.9996948242188 55.99359893798828 344.9996948242188 60.00030136108398 C 344.9996948242188 64.00665283203125 346.5599975585938 67.77330017089844 349.3931884765625 70.60635375976562 C 352.2264099121094 73.439453125 355.9932861328125 74.99970245361328 360 74.99970245361328 L 360 108.9999008178711 C 360 114.5138473510742 355.5140991210938 118.9998016357422 350.0001525878906 118.9998016357422 Z" stroke="none" fill="#f1f1f1"/>
        </g>
      </g>
      <g id="coupon-2" data-name="coupon" transform="translate(261 2)" opacity="0.06">
        <rect id="Mask-2" data-name="Mask" width="96" height="45" fill="none"/>
        <g id="coupon-3" data-name="coupon" clip-path="url(#clip-path)">
          <g id="Group_Copy_3" data-name="Group Copy 3" transform="matrix(0.966, 0.259, -0.259, 0.966, 21.214, -18.793)">
            <path id="Shape" d="M10.381,46a1.385,1.385,0,0,1-1.4-1.375A7.5,7.5,0,0,0,1.4,37.212,1.385,1.385,0,0,1,0,35.837V10.163A1.385,1.385,0,0,1,1.4,8.788,7.5,7.5,0,0,0,8.976,1.375,1.385,1.385,0,0,1,10.381,0H63.69a1.385,1.385,0,0,1,1.4,1.375,7.5,7.5,0,0,0,7.572,7.412,1.275,1.275,0,0,1,1.327,1.375V35.837a1.385,1.385,0,0,1-1.4,1.375,7.5,7.5,0,0,0-7.571,7.412A1.385,1.385,0,0,1,63.613,46Z" transform="translate(0)"/>
            <path id="Shape-2" data-name="Shape" d="M9.288,35a1.367,1.367,0,0,1-1.327-.841A13.057,13.057,0,0,0,.859,27.2,1.411,1.411,0,0,1,0,25.9V9.093a1.338,1.338,0,0,1,.859-1.3A13.054,13.054,0,0,0,7.961.841,1.445,1.445,0,0,1,9.288,0H53.465a1.37,1.37,0,0,1,1.327.841,13.054,13.054,0,0,0,7.1,6.953,1.411,1.411,0,0,1,.859,1.3V25.9a1.338,1.338,0,0,1-.859,1.3,13.057,13.057,0,0,0-7.1,6.953A1.445,1.445,0,0,1,53.465,35Z" transform="translate(5.62 5.502)"/>
            <path id="Path" d="M12.214,4.069,8.545,3.84c-.078,0-.078,0-.156-.076L6.984.4A.628.628,0,0,0,5.814.4l-1.4,3.362c0,.076-.078.076-.156.076L.584,4.069a.63.63,0,0,0-.39,1.07L3,7.507c.078,0,.078.076.078.153l-.859,3.515a.626.626,0,0,0,.937.688l3.122-1.91h.156l3.122,1.91a.626.626,0,0,0,.937-.688L9.638,7.66c0-.076,0-.076.078-.153l2.81-2.369A.585.585,0,0,0,12.214,4.069Z" transform="translate(47.73 16.715)"/>
            <path id="Path-2" data-name="Path" d="M12.214,4.069,8.545,3.84c-.078,0-.078,0-.156-.076L6.984.4A.628.628,0,0,0,5.814.4l-1.4,3.362c0,.076-.078.076-.156.076L.584,4.069a.63.63,0,0,0-.39,1.07L3,7.507c.078,0,.078.076.078.153l-.859,3.515a.626.626,0,0,0,.937.688l3.122-1.91h.156l3.122,1.91a.626.626,0,0,0,.937-.688L9.638,7.66c0-.076,0-.076.078-.153l2.81-2.369A.567.567,0,0,0,12.214,4.069Z" transform="translate(30.559 16.715)"/>
            <path id="Path-3" data-name="Path" d="M12.214,4.069,8.545,3.84c-.078,0-.078,0-.156-.076L6.984.4A.628.628,0,0,0,5.814.4l-1.4,3.362c0,.076-.078.076-.156.076L.584,4.069a.63.63,0,0,0-.39,1.07L3,7.507c.078,0,.078.076.078.153l-.859,3.515a.626.626,0,0,0,.937.688l3.122-1.91h.156l3.122,1.91a.626.626,0,0,0,.937-.688L9.638,7.66c0-.076,0-.076.078-.153l2.81-2.369A.585.585,0,0,0,12.214,4.069Z" transform="translate(13.465 16.715)"/>
          </g>
        </g>
      </g>
      <path id="Rectangle" d="M10,0H76a0,0,0,0,1,0,0V119a0,0,0,0,1,0,0H10A10,10,0,0,1,0,109V10A10,10,0,0,1,10,0Z" transform="translate(5 2)" fill="#f2e2f6"/>
    </g>
    <text id="_3_000원_할인" data-name="3,000원 할인" transform="translate(103 41)" font-size="18" font-family="NotoSansCJKkr-Bold, Noto Sans CJK KR" font-weight="700"><tspan x="0" y="0">3,000원 할인</tspan></text>
    <text id="_3만원_이상_구매_시" data-name="3만원 이상 구매 시" transform="translate(103 68)" fill="#c588d4" font-size="13" font-family="NotoSansCJKkr-Regular, Noto Sans CJK KR"><tspan x="0" y="0">3만원 이상 구매 시</tspan></text>
    <text id="유효기간_:_2021._5._30까지_copy" data-name="유효기간 : 2021. 5. 30까지 copy" transform="translate(103 91)" fill="#737373" font-size="12" font-family="NotoSansCJKkr-Regular, Noto Sans CJK KR"><tspan x="0" y="0">유효기간 : 2021. 5. 30까지</tspan></text>
    <path id="Path-4" data-name="Path" d="M13.71.666l-6.937,8.3L3.339,5.228C1.594,3.331-1.19,6.2.552,8.09l4.894,5.322a1.947,1.947,0,0,0,2.787,0L16.5,3.529C18.142,1.562,15.366-1.314,13.71.666Z" transform="translate(35 55)" fill="#c588d4"/>
  </g>
</svg>
