<svg xmlns="http://www.w3.org/2000/svg" width="13" height="12" viewBox="0 0 13 12">
    <g fill="none" fill-rule="evenodd">
        <g fill="#000" fill-rule="nonzero">
            <g>
                <g>
                    <path d="M3.297 0c-.305 0-.553.247-.553.551v.542h-.961C.8 1.093 0 1.89 0 2.87v7.355C0 11.204.8 12 1.783 12h9.434C12.2 12 13 11.204 13 10.224V2.87c0-.98-.8-1.776-1.783-1.776h-.824V.551c0-.304-.248-.551-.553-.551-.306 0-.554.247-.554.551v.542H3.851V.551C3.85.247 3.603 0 3.297 0zm8.596 10.224c0 .372-.303.674-.676.674H1.783c-.373 0-.676-.302-.676-.674V5.611h10.786v4.613zM9.286 2.195v.542c0 .305.248.551.554.551.305 0 .553-.246.553-.55v-.543h.824c.373 0 .676.302.676.674v1.64H1.107v-1.64c0-.372.303-.674.676-.674h.961v.542c0 .305.248.551.553.551.306 0 .554-.246.554-.55v-.543h5.435z" transform="translate(-34 -522) translate(34 518) translate(0 4)"/>
                </g>
            </g>
        </g>
    </g>
</svg>
