<svg xmlns="http://www.w3.org/2000/svg" width="18" height="20" viewBox="0 0 18 20">
    <g fill="none" fill-rule="evenodd">
        <g fill="silver" fill-rule="nonzero">
            <g>
                <g>
                    <path d="M.116 3.679C-.233 2.073.764.468 2.359.066c.747-.15 1.495-.05 2.142.352l12.011 6.974c1.446.853 1.894 2.659 1.097 4.114-.25.451-.648.853-1.097 1.104l-12.01 6.974c-1.446.853-3.24.35-4.087-1.104-.399-.652-.499-1.455-.349-2.158l1.445-6.321L.116 3.679zm3.24 7.325l-1.297 5.77c-.05.25 0 .502.1.702.3.502.897.653 1.346.352l12.01-6.974c.15-.1.3-.201.35-.352.298-.501.099-1.103-.35-1.354L3.506 2.174c-.2-.15-.499-.15-.698-.1-.548.1-.897.652-.748 1.204l1.296 5.77H8.04c.548 0 .997.451.997 1.003 0 .552-.449 1.003-.997 1.003H3.355v-.05z" transform="translate(-337 -1036) translate(0 1014) translate(337 22)"/>
                </g>
            </g>
        </g>
    </g>
</svg>
