<svg id="exchange_icon" xmlns="http://www.w3.org/2000/svg" width="29" height="32" viewBox="0 0 29 32">
  <path id="Path" d="M2.034,10.644H22.078l-2.887,2.964a2.113,2.113,0,0,0,0,2.931,2.008,2.008,0,0,0,1.443.606,2.064,2.064,0,0,0,1.443-.606l6.331-6.5a2.113,2.113,0,0,0,0-2.931L22.045.606a1.983,1.983,0,0,0-2.854,0,2.113,2.113,0,0,0,0,2.931L22.078,6.5H2.034A2.072,2.072,0,0,0,0,8.589,2.043,2.043,0,0,0,2.034,10.644Z"/>
  <path id="Path-2" data-name="Path" d="M26.933,6.5H6.889L9.776,3.537a2.113,2.113,0,0,0,0-2.931,1.983,1.983,0,0,0-2.854,0L.59,7.107A2.062,2.062,0,0,0,0,8.589a2.119,2.119,0,0,0,.59,1.482l6.331,6.467a2.008,2.008,0,0,0,1.443.606,2.064,2.064,0,0,0,1.443-.606,2.113,2.113,0,0,0,0-2.931L6.922,10.644H26.933a2.072,2.072,0,0,0,0-4.143Z" transform="translate(0.033 14.855)"/>
</svg>
