<svg xmlns="http://www.w3.org/2000/svg" width="12" height="8" viewBox="0 0 12 8">
    <g fill="none" fill-rule="evenodd">
        <g fill="#8097E6" fill-rule="nonzero">
            <g>
                <g>
                    <path d="M2.651 6l3.64-3.858c.362-.385.362-1.008 0-1.392-.362-.384-.951-.385-1.314 0L.71 5.274c-.189.2-.28.467-.271.73-.006.26.084.523.271.722l4.268 4.524c.363.384.951.385 1.314 0 .361-.383.362-1.007 0-1.392L2.65 6z" transform="translate(-244.000000, -1946.000000) translate(135.000000, 1940.000000) translate(115.000000, 10.000000) rotate(-270.000000) translate(-115.000000, -10.000000) translate(111.500000, 4.000000) translate(3.500000, 6.000000) rotate(-180.000000) translate(-3.500000, -6.000000)"/>
                </g>
            </g>
        </g>
    </g>
</svg>
