<svg xmlns="http://www.w3.org/2000/svg" width="20" height="16" viewBox="0 0 20 16">
    <g fill="none" fill-rule="evenodd">
        <g fill="#000" fill-rule="nonzero">
            <g>
                <path d="M19.622 7.15L13.214.351c-.44-.468-1.155-.468-1.575 0-.442.468-.442 1.226 0 1.672l4.516 4.793H1.113C.504 6.816 0 7.35 0 7.997 0 8.644.504 9.18 1.113 9.18h15.021L11.64 13.97c-.442.469-.442 1.226 0 1.672.21.223.504.357.798.357.294 0 .567-.111.798-.357l6.429-6.821c.21-.223.336-.535.336-.847-.042-.29-.168-.602-.378-.825z" transform="translate(-222.000000, -96.000000) translate(222.000000, 96.000000)"/>
            </g>
        </g>
    </g>
</svg>
