<svg xmlns="http://www.w3.org/2000/svg" width="15" height="14" viewBox="0 0 15 14">
    <g fill="none" fill-rule="evenodd">
        <g fill="#734015" fill-rule="nonzero">
            <g>
                <g>
                    <path d="M5.481 6.527L6.345 6.527 6.345 6.527 5.913 5.286z" transform="translate(-159 -801) translate(70 787) translate(89 14)"/>
                    <path d="M7.5 0C3.358 0 0 2.678 0 5.981c0 2.136 1.404 4.012 3.516 5.068-.115.4-.739 2.578-.763 2.75 0 0-.016.128.067.176.055.029.12.033.179.011.236-.033 2.74-1.81 3.173-2.115.44.062.884.092 1.328.091 4.142 0 7.5-2.677 7.5-5.98C15 2.677 11.642 0 7.5 0zM3.788 5.053c-.01.846.007 1.736-.006 2.569-.005.266-.156.345-.36.421-.024.008-.049.01-.073.005-.234-.046-.421-.131-.427-.426-.016-.832.005-1.723-.006-2.57-.199-.007-.481.009-.665 0-.256-.016-.433-.18-.422-.425.01-.244.14-.42.426-.424.676-.01 1.514-.01 2.19 0 .29.004.418.18.426.424.009.244-.165.409-.42.426-.182.008-.464-.008-.663 0zm3.635 2.95c-.087.04-.18.06-.276.06-.18 0-.318-.072-.36-.193l-.217-.567H5.254l-.217.567c-.042.12-.18.194-.36.194-.095 0-.189-.021-.275-.06-.12-.056-.234-.21-.103-.622l1.038-2.756c.089-.248.316-.418.576-.432.26.015.488.185.577.433L7.525 7.38c.131.413.017.57-.102.622zm2.186 0H8.221c-.224.005-.409-.175-.415-.401v-2.97c.01-.24.205-.43.442-.43.237 0 .432.19.442.43v2.57h.92c.147-.008.287.066.363.194.077.128.077.288 0 .416-.076.128-.216.202-.364.193v-.002zm3.39-.33c-.023.177-.15.322-.32.367-.17.045-.351-.02-.456-.162l-1.015-1.36-.15.152v.955c0 .242-.194.438-.433.438-.238 0-.432-.196-.432-.438v-2.99c0-.242.194-.438.432-.438.24 0 .433.196.433.438v.938l1.207-1.221c.064-.064.15-.1.24-.098.224.006.408.181.426.407.008.098-.027.195-.094.266l-.988.997 1.065 1.428c.069.092.098.209.083.324l.002-.003z" transform="translate(-159 -801) translate(70 787) translate(89 14)"/>
                </g>
            </g>
        </g>
    </g>
</svg>
