<svg id="comment_good_icon_on" xmlns="http://www.w3.org/2000/svg" width="15" height="13" viewBox="0 0 15 13">
  <path id="Combined_Shape" data-name="Combined Shape" d="M7.421,13a5.781,5.781,0,0,1-3.127-.872,1.262,1.262,0,0,1-.916.4H1.184A1.15,1.15,0,0,1,0,11.417V5.989a1.15,1.15,0,0,1,1.184-1.11H3.41a1.225,1.225,0,0,1,.759.266l.005-.006a.388.388,0,0,1,.089-.067C5.749,4.207,7.15,1.807,7.6.781A1.429,1.429,0,0,1,8.945,0a1.882,1.882,0,0,1,.513.071,1.337,1.337,0,0,1,1.074,1.553c-.1.481-.587,1.9-.948,2.929.474.015.926.024,1.306.024.229,0,.421,0,.557-.01.711-.014,1.547-.014,2.1-.014A1.41,1.41,0,0,1,15,5.915a1.3,1.3,0,0,1-.553,1.079,1.279,1.279,0,0,1,.3.829,1.356,1.356,0,0,1-.553,1.08,1.275,1.275,0,0,1,.3.828,1.3,1.3,0,0,1-.553,1.08,1.274,1.274,0,0,1,.3.828A1.41,1.41,0,0,1,12.79,13ZM8.353,1.033c-.3.712-1.791,3.592-3.679,4.675a.233.233,0,0,0-.126.207L4.532,11.24a4.291,4.291,0,0,0,2.842.9h5.368a.6.6,0,0,0,.445-.193.535.535,0,0,0,.14-.414.581.581,0,0,0-.458-.473.392.392,0,0,1-.3-.414v-.059a.387.387,0,0,1,.4-.34h.047a.6.6,0,0,0,.445-.193.535.535,0,0,0,.14-.414.575.575,0,0,0-.458-.472.392.392,0,0,1-.3-.415V8.7a.388.388,0,0,1,.4-.34h.047a.6.6,0,0,0,.445-.194.534.534,0,0,0,.14-.413.579.579,0,0,0-.458-.473.391.391,0,0,1-.3-.414V6.8a.388.388,0,0,1,.4-.34h.048a.577.577,0,0,0,.463-.217.518.518,0,0,0,.074-.464.6.6,0,0,0-.6-.444c-.547,0-1.373,0-2.052.014H9.553a.867.867,0,0,1-.884-.828.881.881,0,0,1,.047-.282c.49-1.362.85-2.464.916-2.81A.547.547,0,0,0,9.158.811a1.055,1.055,0,0,0-.28-.039A.539.539,0,0,0,8.353,1.033ZM.868,5.989v5.443a.307.307,0,0,0,.316.3h2.21a.307.307,0,0,0,.316-.3H3.695V5.989a.307.307,0,0,0-.316-.3H1.184A.307.307,0,0,0,.868,5.989Zm.789,4.349a.612.612,0,0,1,.632-.591.593.593,0,1,1,0,1.183A.612.612,0,0,1,1.658,10.337Z" fill="#617bea"/>
</svg>
