<svg xmlns="http://www.w3.org/2000/svg" width="31" height="23" viewBox="0 0 31 23">
    <g fill="none" fill-rule="evenodd">
        <g fill="#000" fill-rule="nonzero">
            <g>
                <g>
                    <g>
                        <path d="M30.75 9.671c0-.106-.114-.318-.227-.425l-3.404-3.932c-.567-.744-1.475-1.063-2.383-1.063h-4.879V2.976c0-1.594-1.362-2.87-3.177-2.976H.794C.34 0 0 .319 0 .85c0 .532.34.85.908.85h15.885c.795 0 1.362.638 1.362 1.276v15.092H11.8v-.213c-.568-2.126-2.837-3.4-5.106-2.87-1.475.32-2.724 1.488-3.064 2.87v.213H.908c-.568 0-.908.318-.908.85 0 .531.34.85.908.85h2.61v.213c.226 1.062 1.02 1.913 1.928 2.444 1.022.531 2.156.744 3.178.425 1.588-.531 2.723-1.594 3.177-2.976v-.212h8.737v.212c.227 1.063 1.021 1.913 1.929 2.445 1.02.531 2.156.744 3.177.425 1.588-.425 2.723-1.488 3.063-2.976v-.106h.114c1.248-.425 2.156-1.488 2.156-2.763v-5.633-.425c.113-.744-.227-1.17-.227-1.17zM7.716 21.256c-1.362 0-2.61-1.063-2.61-2.338 0-1.276 1.135-2.338 2.496-2.338 1.362 0 2.497 1.062 2.497 2.338.113 1.275-1.022 2.338-2.383 2.338zm12.141-15.41h4.88c.453 0 .793.212 1.134.53l2.723 3.19h-8.737v-3.72zm4.88 15.41c-1.363 0-2.497-1.063-2.497-2.338 0-1.276 1.134-2.338 2.496-2.338s2.496 1.062 2.496 2.338c0 1.275-1.134 2.338-2.496 2.338zm4.765-4.464c0 .32-.114.638-.34.85l-.341.32-.114-.426c-.34-.956-1.134-1.807-2.155-2.232-1.022-.425-2.156-.531-3.178-.106-1.361.425-2.382 1.488-2.723 2.763v.213h-.68v-6.908h9.53v5.526z" transform="translate(-204 -177) translate(88 164) translate(108 13) translate(8)"/>
                        <path d="M.908 5.845h6.808c.454 0 .908-.318.908-.85 0-.531-.454-.744-.908-.744H.908c-.568 0-.908.319-.908.85 0 .532.34.744.908.744zM.908 10.097h3.404c.454 0 .908-.32.908-.85 0-.532-.454-.745-.908-.745H.908c-.568 0-.908.32-.908.85 0 .532.34.745.908.745z" transform="translate(-204 -177) translate(88 164) translate(108 13) translate(8)"/>
                    </g>
                </g>
            </g>
        </g>
    </g>
</svg>
