<svg xmlns="http://www.w3.org/2000/svg" width="27" height="23" viewBox="0 0 27 23">
    <g fill="none" fill-rule="evenodd">
        <g fill="#FFF" fill-rule="nonzero" stroke="#000" stroke-width="2.178">
            <g>
                <g>
                    <g>
                        <path d="M3.818 3.75c-2.426 2.33-2.422 6.063 0 8.395l8.843 8.527c.217.21.518.328.832.328.315 0 .616-.118.833-.328 2.953-2.837 5.902-5.678 8.855-8.516 2.425-2.33 2.425-6.065 0-8.395-2.426-2.331-6.453-2.332-8.879 0l-.803.77-.802-.781C11.484 2.584 9.865 2 8.25 2c-1.614 0-3.22.584-4.433 1.75z" transform="translate(-314 -177) translate(88 164) translate(220 13) translate(6)"/>
                    </g>
                </g>
            </g>
        </g>
    </g>
</svg>
