<svg xmlns="http://www.w3.org/2000/svg" width="23" height="24" viewBox="0 0 23 24">
    <g fill="none" fill-rule="evenodd">
        <g fill="#000" fill-rule="nonzero">
            <g>
                <g>
                    <g>
                        <path d="M1.685 23.2c0 1.066-1.685 1.066-1.685 0 0-5.082 3.454-9.427 8.256-10.739-2.022-1.148-3.37-3.197-3.37-5.575v-.491C4.886 2.869 7.836 0 11.458 0c3.623 0 6.571 2.87 6.571 6.395v.491c0 2.378-1.348 4.427-3.285 5.575C19.546 13.773 23 18.118 23 23.201c0 1.065-1.685 1.065-1.685 0 0-5.33-4.38-9.592-9.857-9.592-5.392 0-9.773 4.263-9.773 9.592zm9.773-21.56C8.846 1.64 6.57 3.77 6.57 6.395v.491c0 2.624 2.275 4.755 4.887 4.755 2.696 0 4.886-2.131 4.886-4.755v-.491c0-2.624-2.19-4.755-4.886-4.755z" transform="translate(-100 -177) translate(88 164) translate(0 13) translate(12)"/>
                    </g>
                </g>
            </g>
        </g>
    </g>
</svg>
