<svg xmlns="http://www.w3.org/2000/svg" width="98" height="18" viewBox="0 0 98 18">
  <g id="lift_logo_copy" data-name="lift_logo copy" transform="translate(0 0)">
    <g id="Group">
      <path id="Shape" d="M18.292,17.537a10.485,10.485,0,0,1-.453-1.361,21.637,21.637,0,0,1-.952-6.471c.015-.172-.016-.25-.2-.235-1.17.078-2.341.015-3.512.094-.171,0-.249.031-.3.235a.715.715,0,0,1-.578.579.413.413,0,0,1-.374-.719,1.157,1.157,0,0,1,.562-.3c.14-.031.172-.078.125-.2a7.108,7.108,0,0,0-.734-1.36c-.031-.063-.078-.078-.125-.016A3.288,3.288,0,0,1,9.6,8.673c-.53.11-.515.11-.53.626a1.982,1.982,0,0,1-.047.422.4.4,0,0,1-.359.344.46.46,0,0,1-.484-.25.763.763,0,0,1,.344-1.047.456.456,0,0,0,.281-.5q0-.8.047-1.595a.865.865,0,0,1,1.3-.813A3.8,3.8,0,0,1,11.6,6.985a1.383,1.383,0,0,1,.172.22.776.776,0,0,0-.016-.594,2.181,2.181,0,0,0-.764-1.126,7.481,7.481,0,0,0-1.3-.859C9.333,4.453,9.005,4.172,8.631,4a2.3,2.3,0,0,0-1.577-.2A.92.92,0,0,0,6.6,4a1.306,1.306,0,0,1-1.2.3,3.455,3.455,0,0,1-1.327-.563,3.009,3.009,0,0,0-.765-.313c-.14-.047-.218.078-.234.188a3.929,3.929,0,0,0,.031,2.079,1.328,1.328,0,0,0,.453.563A13.813,13.813,0,0,1,5.244,7.736a3.519,3.519,0,0,1,1.03,2.329c0,.172.047.328.25.36a.28.28,0,0,1,.14.094c.094.094.172.219.078.328-.094.094-.2.031-.312-.016a.319.319,0,0,1-.094-.062c-.266-.2-.374-.2-.578.062a1.335,1.335,0,0,0-.249,1.313A3.233,3.233,0,0,1,5.7,13.722,2.036,2.036,0,0,1,4.09,15.333c-.656.2-1.328.234-1.983.391A3.678,3.678,0,0,0,.671,16.4a1.469,1.469,0,0,0-.453.531c-.031.063-.063.125-.14.094C0,17.006,0,16.927,0,16.865A.843.843,0,0,1,.328,16.3a3.85,3.85,0,0,1,1.779-.844c.625-.124,1.28-.156,1.9-.328a1.843,1.843,0,0,0,1.452-2.423c-.047-.2-.094-.391-.14-.579a1.388,1.388,0,0,1,.7-1.688c.109-.078.062-.14.062-.219a3.892,3.892,0,0,0-1.7-2.908C4,6.985,3.574,6.688,3.168,6.376a1.583,1.583,0,0,1-.53-1A5.581,5.581,0,0,1,2.7,3.609c.094-.516.437-.672.921-.454.469.2.921.454,1.39.657a1.354,1.354,0,0,0,1.5-.125A1.842,1.842,0,0,1,8.24,3.546a7.582,7.582,0,0,1,3.169,1.985,2.35,2.35,0,0,1,.624,1.2.7.7,0,0,1,.016.359c-.14.359.031.609.219.891a4.3,4.3,0,0,1,.608,1.188c.032.094.062.125.172.11a35,35,0,0,1,3.621-.11c.187,0,.249-.047.266-.25a13.587,13.587,0,0,1,1.841-5.878c.5-.844.952-1.7,1.483-2.516a2.077,2.077,0,0,1,.156-.235c.344-.421.734-.391.968.094a3.122,3.122,0,0,1,.344,1.235c.015.187.077.266.266.266a2.433,2.433,0,0,1,.468.078,3.163,3.163,0,0,1,.812-.3c.3-.047.374.047.311.344-.031.172-.218.266-.218.437a.918.918,0,0,1,.3.844.555.555,0,0,0,.125.469,1.129,1.129,0,0,1,.2.986c-.031.219-.109.406-.39.375-.047,0-.11,0-.094.062.047.312-.187.391-.391.5-.125.062-.265.109-.39.156-.344.11-.437.266-.344.61a3.044,3.044,0,0,0,.89,1.47,5.051,5.051,0,0,0,.983.734,14.024,14.024,0,0,1,1.483,1.048,2.3,2.3,0,0,1,.764,1.11c.047.125.14.344-.156.359-.031-.094-.094-.172-.125-.266a2.476,2.476,0,0,0-1.093-1.3c-.593-.422-1.233-.766-1.795-1.235a3.405,3.405,0,0,1-1.218-1.829.741.741,0,0,1,.453-.985c-.2-.2-.187-.547-.437-.735a.167.167,0,0,1,0-.281.217.217,0,0,1,.311.109c.125.313.344.25.578.2.219-.032.406-.172.625-.015.094.062.109-.047.124-.094.048-.125-.047-.095-.124-.11a.257.257,0,0,1-.265-.234.246.246,0,0,1,.2-.282c.047-.015.078-.015.14-.031-.124-.234-.328-.406-.281-.672a1,1,0,0,0-.343-.953c-.016-.016-.032-.016-.047-.032a2.142,2.142,0,0,0-1.061-.312.384.384,0,0,1-.437-.422A2.853,2.853,0,0,0,21.242.514c-.172-.36-.39-.392-.625-.063-.2.282-.39.594-.577.891a20.39,20.39,0,0,0-2.232,4.627,13.679,13.679,0,0,0-.531,2.971c0,.094-.062.2.125.219q1.476.07,2.95.281a17.033,17.033,0,0,1,5.837,1.735c.047.016.11.11.172.031-.031.125.11.11.172.157a6.186,6.186,0,0,1,2.092,2.032,3.016,3.016,0,0,1,.421,2.3,2.29,2.29,0,0,1-2.653,2.048,9.973,9.973,0,0,1-1.795-.3.518.518,0,0,0-.516.095,1.657,1.657,0,0,1-1.373.328.618.618,0,0,1-.328-.14.378.378,0,0,1,.125-.7,2.982,2.982,0,0,1,1.436.078.362.362,0,0,0,.406-.14,3.609,3.609,0,0,0,.687-1.61,4.315,4.315,0,0,0,.047-2.142.972.972,0,0,0-1.607-.625,4.684,4.684,0,0,0-1.529,1.829,18.209,18.209,0,0,0-.89,2.141,3.4,3.4,0,0,1-.593,1.032.6.6,0,0,1-.952.094c-.078-.063-.094-.047-.14.015a.773.773,0,0,1-.545.307C18.611,18,18.421,17.847,18.292,17.537Z" fill="#2d211e"/>
      <path id="Path" d="M.075.063v0Z" transform="translate(26.287 11.128)" fill="#2d211e"/>
    </g>
    <g id="Group-2" data-name="Group" transform="translate(35.409 2.379)">
      <path id="Path-2" data-name="Path" d="M6.054,3.283c-1.467.172-2.934.156-4.4.234-.343.016-.64.016-.656-.485-.016-.531.3-.469.64-.485L5.414,2.5c.2,0,.609.063.453-.3A2.72,2.72,0,0,1,5.9.7c.047-.375-.031-.719-.546-.7C3.744.047,2.137.079.514.11-.1.126.014.423.233.766c.156.266.39.266.671.234C2.074.923,3.229.876,4.4.813c.25-.016.468-.047.468.313,0,.3-.094.453-.39.453-1.342-.016-2.685.438-4.027.016C.123,1.486-.079,1.532.03,2A12.421,12.421,0,0,1,.186,3.533c.062.516.3.813.858.8.8-.016,1.592,0,2.388,0V4.268c.89,0,1.779.016,2.669,0A.613.613,0,0,0,6.71,3.5C6.679,3.064,6.3,3.252,6.054,3.283Z" transform="translate(54.258 8.686)" fill="#2d211e"/>
      <path id="Shape-2" data-name="Shape" d="M.4,5.036C.271,3.472.271,1.909.005.362-.041,0,.224-.06.443.049a5.654,5.654,0,0,0,3.2.337A12.138,12.138,0,0,1,5.093.314C6.249.362,6.451.534,6.249,1.69c-.125.7-.2,1.391-.312,2.064a.9.9,0,0,0,.125.594c.374.719.374.734-.469.734H3.736a8.1,8.1,0,0,1-1.022.024,3.982,3.982,0,0,0-1.9.273.366.366,0,0,1-.168.049C.5,5.429.419,5.273.4,5.036Z" transform="translate(14.889 2.088)" fill="#2d211e"/>
      <path id="Path-3" data-name="Path" d="M11.728,2.906c-1.046.031-2.107.063-3.153.109-.39.016-.546-.078-.468-.516.094-.672.125-1.344.187-2.017C8.326.061,8,.076,7.733.014,7.374-.064,7.374.2,7.374.452c-.016.563-.062,1.126-.062,1.688-.016,1.047.062.922-1.014.969-.562.031-.8-.141-.827-.7A11.864,11.864,0,0,0,5.2.952C5.111.483,4.736.53,4.424.592c-.39.078-.14.36-.109.547.14.641.3,1.266.484,2.048H.538c-.219,0-.593-.125-.531.328.047.328.016.688.593.641,3.59-.25,7.179-.281,10.785-.266a3.8,3.8,0,0,0,.421-.016.677.677,0,0,0,.546-.782C12.306,2.734,11.962,2.906,11.728,2.906Z" transform="translate(11.938 7.641)" fill="#2d211e"/>
      <path id="Path-4" data-name="Path" d="M3.674.641C3.689.11,3.3,0,2.94,0,2.5-.015,2.706.376,2.706.579c-.016.844.016,1.688.016,2.532,0,1.2,0,1.188-1.186,1.251C1,4.393.911,4.206.958,3.737c.062-.657.016-1.313.062-1.97C1.052,1.2.661,1.048.287,1.032c-.453-.016-.234.422-.234.657C.022,2.627.037,3.565.037,4.5V5.972c0,.485-.031.985-.016,1.469.016.25-.172.657.39.61.406-.031.671-.125.577-.641a5.052,5.052,0,0,1-.016-.844c0-1.391,0-1.376,1.342-1.438.359-.016.437.078.421.406Q2.69,6.8,2.69,8.067c0,.25-.14.61.375.547.375-.047.64-.078.593-.61a44.27,44.27,0,0,1-.031-5.19C3.642,2.1,3.642,1.36,3.674.641Z" transform="translate(45.479 0.042)" fill="#2d211e"/>
      <path id="Path-5" data-name="Path" d="M2.783,6.5c-.765-.016-1.53.047-2.31.078C.3,6.6.036,6.473,0,6.723c-.031.156.109.344.2.5.14.25.375.219.624.2C1.456,7.38,2.1,7.349,2.72,7.27c.453-.047.671.031.624.563a11.094,11.094,0,0,0-.031,1.61c0,.266-.172.688.375.641.406-.031.64-.156.609-.7a60.586,60.586,0,0,1-.031-6.3c.031-.766.016-1.548.062-2.314A.655.655,0,0,0,3.625,0c-.546-.031-.25.438-.281.672a13.33,13.33,0,0,0-.016,1.391c0,.063.016.25.016.422C3.391,3.894,3.391,3.894,2,3.878c-.281,0-.562-.016-.843-.031-.437-.047-.468.141-.328.5.281.657.827.375,1.264.36,1.264-.078,1.233-.078,1.249,1.188C3.36,6.364,3.251,6.52,2.783,6.5Z" transform="translate(5.947 0.025)" fill="#2d211e"/>
      <path id="Shape-3" data-name="Shape" d="M.013,4.188C-.066,3.75.247,3.829.5,3.829H1.682V3.782H3.009c.2,0,.374,0,.359-.282,0-.219.032-.437-.281-.469a1.788,1.788,0,0,1-.406-.125A1.413,1.413,0,0,1,1.62,1.562,1.4,1.4,0,0,1,2.728.186,3.059,3.059,0,0,1,4.991.248a1.347,1.347,0,0,1,.936,1.266,1.367,1.367,0,0,1-.936,1.345,2.962,2.962,0,0,1-.531.156c-.312.063-.25.313-.25.5,0,.25.219.2.359.188l2.653-.188c.172-.015.406-.125.453.141a.485.485,0,0,1-.3.516,2.5,2.5,0,0,1-.453.125c-2.107.156-4.23.3-6.352.484-.035,0-.067,0-.1,0C.059,4.786.056,4.494.013,4.188Z" transform="translate(50.982 3.514)" fill="#2d211e"/>
      <path id="Shape-4" data-name="Shape" d="M.06,1.8C.31.576,1.622-.158,3.229.029A2.338,2.338,0,0,1,5.585,2.374C5.555,3.749,4.477,4.609,2.808,4.609h-.04C.841,4.609-.28,3.441.06,1.8Z" transform="translate(43.177 8.658)" fill="#2d211e"/>
      <path id="Path-6" data-name="Path" d="M5.608,0C4.89.051,4.172.082,3.438.129V.1C2.861.1,2.268.082,1.69.1c-.2,0-.546-.156-.562.2a.613.613,0,0,0,.5.672,3.372,3.372,0,0,0,.562,0C3.079.942,3.969.926,4.843.895c.484-.016.546.172.3.531A18.071,18.071,0,0,1,4.047,2.958,10.352,10.352,0,0,1,.473,5.725c-.2.094-.515.141-.468.438.062.313.375.328.624.313a2.249,2.249,0,0,0,.983-.344A11.137,11.137,0,0,0,6.388,1.161C6.81.332,6.544-.043,5.608,0Z" transform="translate(0 2.493)" fill="#2d211e"/>
      <path id="Path-7" data-name="Path" d="M2.8,5.191A10.075,10.075,0,0,0,1.61,5.27c-.593.125-.749-.047-.7-.672C1,3.284.986,1.971,1.032.674,1.048.158.674.017.315,0-.169-.03.049.408.049.627.034,2.1.034,3.581.034,5.051S.018,8.005.049,9.475c0,.234-.187.625.312.61.406-.016.687-.125.64-.672C.923,8.505.97,7.583.908,6.677c-.031-.469.156-.61.577-.61.562.016,1.124-.016,1.686,0,.39.016.437-.141.281-.453C3.3,5.332,3.124,5.16,2.8,5.191Z" transform="translate(32.248 0.041)" fill="#2d211e"/>
      <path id="Path-8" data-name="Path" d="M3.006,4.815a5.174,5.174,0,0,0-.983.031C.884,4.94.9,4.94.946,3.8.993,2.767.993,1.735,1.04.719,1.071.172.712,0,.306,0c-.484,0-.25.422-.25.657C.025,1.8.041,2.954.041,4.1H.025v3.58c0,.266-.094.61.39.547.343-.047.656-.063.593-.563C.946,7.175.977,6.675.931,6.19c-.031-.375.125-.5.484-.485q.773.023,1.545,0c.2-.016.546.156.546-.219C3.506,5.19,3.4,4.846,3.006,4.815Z" transform="translate(59.085 0.042)" fill="#2d211e"/>
      <path id="Path-9" data-name="Path" d="M5.471,5.862c.234,0,.281-.266.406-.438.172-.234.047-.438-.047-.657A5.457,5.457,0,0,0,4.176,2.8.453.453,0,0,1,4.02,2.11a7.68,7.68,0,0,0,.5-1.3c.14-.453-.234-.625-.531-.782-.265-.125-.3.156-.343.313a11.3,11.3,0,0,1-3.4,5.127c-.109.109-.312.188-.219.375.078.172.3.109.25.094a.878.878,0,0,0,.812-.266A8.974,8.974,0,0,0,3.13,3.58c.219-.328.359-.3.624-.063a5.4,5.4,0,0,1,1.4,1.891C5.237,5.6,5.268,5.862,5.471,5.862Z" transform="translate(38.266 1.949)" fill="#2d211e"/>
      <path id="Path-10" data-name="Path" d="M5.913,3.13c-1.342.188-2.7.047-4.058.156-.468.047-.687-.125-.671-.641.031-.672-.016-1.36-.016-2.032C1.169.019.685.035.326,0-.189-.043.061.394.061.613.092,1.5.185,2.38.248,3.271c.047.594.3.875.936.844.749-.047,1.5-.016,2.232-.016.812,0,1.639-.016,2.45.016A.647.647,0,0,0,6.616,3.4C6.616,2.927,6.163,3.1,5.913,3.13Z" transform="translate(4.439 8.761)" fill="#2d211e"/>
      <path id="Path-11" data-name="Path" d="M6.151,2.6c-1.42.188-2.841.047-4.261.172-.515.047-.734-.156-.718-.672.016-.485,0-.985,0-1.469C1.172,0,.673-.012.282,0-.2.019.08.425.1.644c.047.7.156,1.391.172,2.095.031.61.265.891.905.86.8-.047,1.592-.016,2.372-.016H6.135a.647.647,0,0,0,.671-.735C6.806,2.411,6.385,2.567,6.151,2.6Z" transform="translate(27.488 9.293)" fill="#2d211e"/>
      <path id="Shape-5" data-name="Shape" d="M1.692,3.564A1.781,1.781,0,0,1,.006,1.61C.069.641.959,0,2.191,0c1.5.015,2.451,1.063,2.076,2.282a2.073,2.073,0,0,1-2.063,1.33A2.8,2.8,0,0,1,1.692,3.564Z" transform="translate(25.392 4.591)" fill="#2d211e"/>
      <path id="Path-12" data-name="Path" d="M.6.17C.363.17-.043.029,0,.514c.031.344.14.578.609.547C2.61.9,4.624.9,6.637.9H6.98C7.4.92,7.511.576,7.527.31c.031-.406-.343-.3-.562-.3C5.888,0,4.826.013,3.75.013V.17C2.7.154,1.658.154.6.17Z" transform="translate(23.615 2.968)" fill="#2d211e"/>
      <path id="Path-13" data-name="Path" d="M.523.072C.288.072-.055-.006.007.416c.047.313.062.672.577.578A13.522,13.522,0,0,1,3.1.9C4.05.9,5.017.885,5.97.916,6.438.932,6.7.776,6.7.307c-.016-.5-.421-.234-.64-.25C5.174.025,4.284.041,3.394.041V.057C2.442.072,1.475.072.523.072Z" transform="translate(51.284 2.236)" fill="#2d211e"/>
      <path id="Path-14" data-name="Path" d="M1.321,1.716a5.522,5.522,0,0,0,.656-.188.758.758,0,0,0,.5-.7c0-.36-.328-.406-.593-.485C1.555.246,1.212.137.869.074.6.012.291-.1.1.184a.787.787,0,0,0,.062.86A1.337,1.337,0,0,0,1.321,1.716Z" transform="translate(25.95 0.703)" fill="#2d211e"/>
      <path id="Path-15" data-name="Path" d="M1.467,1.7a3.1,3.1,0,0,0,.515-.156.738.738,0,0,0,.5-.688c0-.375-.328-.406-.577-.5C1.623.261,1.327.2,1.03.12.7.042.328-.161.094.245-.14.636.109.964.344,1.261A1.174,1.174,0,0,0,1.467,1.7Z" transform="translate(53.382 0)" fill="#2d211e"/>
    </g>
  </g>
</svg>
