<svg xmlns="http://www.w3.org/2000/svg" width="10" height="13" viewBox="0 0 10 13">
    <g fill="none" fill-rule="evenodd">
        <g fill="#999" fill-rule="nonzero">
            <g>
                <g>
                    <path d="M8.783 5.29h-.36L8.422 3.51C8.42 1.574 6.832 0 4.879 0 2.927.001 1.34 1.577 1.34 3.514l.003 1.778h-.128C.544 5.294 0 5.834 0 6.5v5.294C0 12.46.546 13 1.217 13l7.569-.004c.67 0 1.215-.54 1.214-1.206V6.494c0-.666-.546-1.204-1.217-1.204zm-6.136.002l-.003-1.778c0-1.223 1.002-2.218 2.235-2.22 1.233 0 2.237.995 2.237 2.217l.003 1.779-4.472.002z" transform="translate(-34.000000, -161.000000) translate(15.000000, 111.000000) translate(19.000000, 50.000000)"/>
                </g>
            </g>
        </g>
    </g>
</svg>
