<svg xmlns="http://www.w3.org/2000/svg" width="13" height="13" viewBox="0 0 13 13">
    <g fill="none" fill-rule="evenodd" opacity=".3">
        <g fill="#000" fill-rule="nonzero" stroke="#000">
            <g>
                <path d="M7.357 6.504l4.469-4.47c.232-.232.232-.611 0-.855-.232-.245-.61-.232-.855 0l-4.469 4.47-4.469-4.47c-.232-.232-.61-.232-.854 0-.245.232-.232.61 0 .855l4.469 4.47-4.47 4.47c-.231.232-.231.61 0 .855.123.122.27.171.428.171.159 0 .305-.061.427-.171l4.47-4.47 4.468 4.47c.122.122.269.171.428.171.158 0 .305-.061.427-.171.232-.232.232-.61 0-.855l-4.469-4.47z" transform="translate(-353 -175) translate(353 175)"/>
            </g>
        </g>
    </g>
</svg>
