<svg xmlns="http://www.w3.org/2000/svg" width="14" height="15" viewBox="0 0 14 15">
    <g fill="none" fill-rule="evenodd" opacity=".3">
        <g>
            <g>
                <g>
                    <path d="M6.006 1.515c-2.478 0-4.5 2.057-4.5 4.576 0 2.519 2.022 4.576 4.5 4.576s4.5-2.057 4.5-4.576c0-2.52-2.022-4.576-4.5-4.576z" transform="translate(-22 -173) translate(22 173) translate(.11)"/>
                    <path fill="#000" fill-rule="nonzero" stroke="#FFF" stroke-width=".58" d="M10.946 9.917c.768-1.036 1.239-2.328 1.239-3.73C12.185 2.773 9.44 0 6.085 0 2.729 0 0 2.774 0 6.186s2.729 6.187 6.085 6.187c1.254 0 2.43-.399 3.403-1.069l.03.032 2.667 2.71c.188.192.455.304.706.304.25 0 .517-.096.705-.303.392-.399.392-1.037 0-1.435l-2.65-2.695zm-4.861.43c-2.259 0-4.093-1.865-4.093-4.16 0-2.297 1.834-4.162 4.093-4.162 2.258 0 4.093 1.865 4.093 4.161 0 2.296-1.835 4.162-4.093 4.162z" transform="translate(-22 -173) translate(22 173) translate(.11)"/>
                </g>
            </g>
        </g>
    </g>
</svg>
