<svg xmlns="http://www.w3.org/2000/svg" width="18" height="19" viewBox="0 0 18 19">
    <g fill="none" fill-rule="evenodd">
        <g>
            <g>
                <g>
                    <path d="M7.722 1.919c-3.185 0-5.786 2.605-5.786 5.796 0 3.19 2.6 5.796 5.786 5.796 3.186 0 5.787-2.605 5.787-5.796 0-3.191-2.601-5.796-5.787-5.796z" transform="translate(-301.000000, -60.000000) translate(301.000000, 60.000000) translate(0.141137, 0.000000)"/>
                    <path fill="#000" fill-rule="nonzero" stroke="#FFF" stroke-width=".724" d="M14.073 12.562c.988-1.313 1.593-2.949 1.593-4.726C15.666 3.514 12.138 0 7.823 0 3.508 0 0 3.514 0 7.836c0 4.322 3.508 7.836 7.823 7.836 1.613 0 3.125-.505 4.375-1.353l.04.04 3.428 3.434c.242.242.585.383.908.383.322 0 .665-.12.907-.383.504-.505.504-1.313 0-1.818l-3.408-3.413zm-6.25.545c-2.903 0-5.262-2.363-5.262-5.271S4.92 2.565 7.823 2.565c2.903 0 5.262 2.363 5.262 5.271s-2.359 5.271-5.262 5.271z" transform="translate(-301.000000, -60.000000) translate(301.000000, 60.000000) translate(0.141137, 0.000000)"/>
                </g>
            </g>
        </g>
    </g>
</svg>
