<svg xmlns="http://www.w3.org/2000/svg" width="15" height="15" viewBox="0 0 15 15">
    <g fill="none" fill-rule="evenodd" opacity=".5">
        <g fill="#000" fill-rule="nonzero">
            <g transform="translate(-347.000000, -1039.000000) translate(347.000000, 1039.000000)">
                <path d="M7.5 1.221c3.471 0 6.279 2.808 6.279 6.279S10.97 13.779 7.5 13.779 1.221 10.97 1.221 7.5 4.03 1.221 7.5 1.221M7.5 0C3.364 0 0 3.364 0 7.5S3.364 15 7.5 15 15 11.636 15 7.5 11.636 0 7.5 0z"/>
                <path d="M8.357 4.307l-.171 4.264c-.022.343-.3.6-.622.579-.321-.021-.578-.279-.578-.579l-.172-4.264c-.021-.428.322-.793.75-.793.429 0 .793.322.793.75v.043z"/>
                <circle cx="7.586" cy="10.757" r="1"/>
            </g>
        </g>
    </g>
</svg>
