<svg xmlns="http://www.w3.org/2000/svg" width="15" height="15" viewBox="0 0 15 15">
    <g fill="none" fill-rule="evenodd">
        <g>
            <g transform="translate(-342 -59) translate(342 59)">
                <circle cx="7.5" cy="7.5" r="7.5" fill="#B5B5B5"/>
                <g fill="#FFF" fill-rule="nonzero" stroke="#FFF" stroke-width=".7">
                    <path d="M3.152 2.73L5.368.512c.115-.116.115-.303 0-.424-.115-.122-.302-.115-.424 0L2.728 2.305.512.09C.397-.026.21-.026.09.089c-.122.115-.115.302 0 .424l2.216 2.216L.089 4.946c-.115.115-.115.303 0 .424.06.06.133.085.211.085.08 0 .152-.03.212-.085l2.216-2.217L4.944 5.37c.061.06.134.085.212.085.08 0 .152-.03.212-.085.115-.115.115-.303 0-.424L3.152 2.729z" transform="translate(4.773 4.773)"/>
                </g>
            </g>
        </g>
    </g>
</svg>
