<svg xmlns="http://www.w3.org/2000/svg" width="57" height="57" viewBox="0 0 57 57">
    <g fill="none" fill-rule="evenodd">
        <g>
            <g>
                <g transform="translate(-167 -1659) translate(0 1659) translate(167)">
                    <rect width="56" height="56" x=".5" y=".5" fill="#F1F1F1" stroke="#EEE" rx="21"/>
                    <g fill-rule="nonzero">
                        <path fill="#FFF" d="M25.38 9.618c-1.711.794-2.853-1.37-3.271-2.489-.685-1.407-1.94-3.246-1.484-4.834C17.011.167 12.027.167 8.451 2.26c.228 1.552-.913 3.21-1.56 4.546-.57 1.479-1.864 3.607-3.842 2.164C.462 17.843 9.935 26.393 14.5 29.134c4.527-2.705 13.81-11.11 11.527-19.876-.228.144-.418.252-.646.36zM17.62 8.5c1.14.036 1.14 1.623 0 1.623-1.142-.036-1.142-1.623 0-1.623zm-6.582 0c1.141.036 1.141 1.623 0 1.623-1.141-.036-1.141-1.623 0-1.623zm9.016 5.628c-.038.721-.304 1.046-.494 1.154-.228.108-.304-.325-.875-.072-.8.505-2.93 1.335-4.147-.289h-.076c-1.217 1.587-3.348.758-4.147.289-.609-.253-.685.18-.875.072-.228-.108-.494-.433-.494-1.154-.038-.578.114-.902.418-.758.304.144.076.433.685 1.01.228.217 1.674 1.046 2.473.722 1.103-.47 1.37-1.119 1.407-2.165-.913-.288-1.598-1.19-1.598-1.695 0-.614.952-1.083 2.131-1.083 1.18 0 2.13.506 2.13 1.083 0 .505-.684 1.407-1.597 1.695h.038c.038 1.046.304 1.696 1.407 2.165.837.324 2.245-.47 2.473-.722.609-.577.419-.902.685-1.01.342-.144.494.18.456.758z" transform="translate(14 15)"/>
                        <path fill="#FFF" d="M28.234 4.676c-.038-.36-.342-.685-.913-1.118-.761-.541-1.864-1.154-2.74-1.587-.912-.433-2.358-1.046-3.005.072-.875 1.479.533 3.283 1.142 4.617.304.65.57 1.335 1.027 1.876.913 1.19 2.092.036 2.815-.757.456-.541.913-1.227 1.293-1.84.229-.47.419-.794.38-1.263zM7.728 2.728c.038-.54-.228-1.082-.647-1.443-1.103-.757-3.233.686-4.299 1.227-.76.433-1.293.794-1.597 1.118-.267.253-.457.541-.419.902.038.397.19.685.419 1.046.608 1.046 1.217 1.948 2.13 2.67 1.408 1.226 2.169-.145 2.74-1.3.532-1.406 1.597-2.705 1.673-4.22z" transform="translate(14 15)"/>
                        <path fill="#727272" d="M26.103 1.935c-2.206-1.19-3.918-2.056-5.174-.289-3.652-2.164-9.016-2.2-12.706-.072-1.18-2.092-3.006-1.19-5.326.036C.272 3.09-.68 3.919.5 5.939c.494.83 1.141 1.804 1.902 2.525-.342 1.082-.533 2.273-.533 3.463C2.022 22.605 13.625 29.423 14.5 30c.837-.541 12.478-7.395 12.63-18.073 0-1.118-.152-2.2-.456-3.21.723-.722 1.332-1.624 1.826-2.453 1.18-2.02.228-2.85-2.397-4.33zM1.185 5.578C.88 5.037.575 4.532.918 3.991c.647-.902 1.902-1.443 2.892-2.056 1.103-.577 3.12-1.66 3.766 0 .114.216.152.505.152.757-.076 1.515-1.141 2.85-1.674 4.22-.532 1.155-1.331 2.526-2.739 1.3-.913-.686-1.522-1.588-2.13-2.634zm25.185 6.35c.19 7.863-8.218 15.042-11.87 17.206C9.897 26.357.5 17.844 3.049 8.97c1.978 1.443 3.272-.685 3.842-2.164.647-1.335 1.788-3.03 1.56-4.546 3.576-2.092 8.56-2.092 12.174.036-.456 1.588.799 3.427 1.484 4.834.609 1.515 1.902 3.608 3.918 2.093.229.901.343 1.803.343 2.705zm1.826-6.891c-.304.938-1.065 1.948-1.674 2.706-.495.54-1.027 1.118-1.75 1.262-.875.072-1.332-.866-1.674-1.515-.57-1.587-2.511-3.824-1.56-5.52.685-1.19 2.245-.432 3.158 0 1.103.686 3.842 1.84 3.5 3.067z" transform="translate(14 15)"/>
                        <path fill="#727272" d="M17.62 10.123c1.14-.036 1.14-1.623 0-1.623-1.142 0-1.142 1.587 0 1.623zM11.038 10.123c1.141-.036 1.141-1.623 0-1.623s-1.141 1.587 0 1.623zM19.636 13.37c-.304.144-.076.433-.685 1.01-.228.217-1.674 1.046-2.473.722-1.103-.47-1.37-1.119-1.407-2.165h-.038c.913-.288 1.597-1.19 1.597-1.695 0-.614-.95-1.083-2.13-1.083s-2.13.506-2.13 1.083c0 .505.684 1.407 1.597 1.695-.038 1.046-.304 1.696-1.407 2.165-.837.324-2.245-.47-2.473-.722-.609-.577-.419-.902-.685-1.01-.266-.108-.418.216-.418.758.038.721.304 1.046.494 1.154.228.108.305-.325.875-.072.8.505 2.93 1.335 4.147-.289h.038c1.217 1.587 3.348.758 4.147.289.609-.253.685.18.875.072.228-.108.494-.433.494-1.154.038-.578-.114-.902-.418-.758z" transform="translate(14 15)"/>
                    </g>
                </g>
            </g>
        </g>
    </g>
</svg>
