<svg id="exclamation_mark" xmlns="http://www.w3.org/2000/svg" width="32" height="32" viewBox="0 0 32 32">
  <path id="Combined_Shape" data-name="Combined Shape" d="M0,16A16,16,0,1,1,16,32,16.018,16.018,0,0,1,0,16ZM6.947,6.947A12.8,12.8,0,0,0,25.053,25.053,12.8,12.8,0,0,0,6.947,6.947ZM14.4,24A1.6,1.6,0,1,1,16,25.6,1.6,1.6,0,0,1,14.4,24Zm1.458-3.343A1.6,1.6,0,0,1,14.4,19.2l-.818-9.6a2.426,2.426,0,0,1,4.836-.391V9.6L17.6,19.2a1.6,1.6,0,0,1-1.608,1.463C15.948,20.663,15.9,20.661,15.858,20.658Z" fill="#ccc"/>
</svg>
