<svg xmlns="http://www.w3.org/2000/svg" width="390" height="17" viewBox="0 0 390 17">
    <g fill="none" fill-rule="evenodd">
        <g fill="#FFF" fill-rule="nonzero">
            <g>
                <path d="M224.245 16.817c-7.44 0-11.47-3.25-14.57-5.75-3.1-2.5-5.27-4.25-10.23-4.25-4.96 0-7.13 2-10.23 4.25-3.1 2.5-7.13 5.75-14.57 5.75s-11.47-3.25-14.57-5.75c-3.1-2.5-5.27-4.25-10.23-4.25-4.96 0-7.13 2-10.23 4.25-3.1 2.5-7.13 5.75-14.57 5.75s-11.47-3.25-14.57-5.75c-3.1-2.5-5.27-4.25-10.23-4.25-4.96 0-7.13 2-10.23 4.25-3.1 2.5-7.13 5.75-14.57 5.75s-11.47-3.25-14.57-5.75c-3.1-2.5-5.27-4.25-10.23-4.25-4.96 0-7.13 2-10.23 4.25-3.1 2.5-7.13 5.75-14.57 5.75s-11.47-3.25-14.57-5.75c-3.1-2.5-5.27-4.25-10.23-4.25C-.522 2.272-.327 0 1.631 0H244.9c2.543 0 3.925 2.272 4.147 6.817-4.962 0-7.132 2-10.232 4.25-3.1 2.5-7.13 5.75-14.57 5.75z" transform="translate(0.000000, -630.000000) translate(-54.000000, 630.000000) translate(124.523663, 8.408331) scale(1, -1) translate(-124.523663, -8.408331)"/>
                <path d="M472.245 16.817c-7.44 0-11.47-3.25-14.57-5.75-3.1-2.5-5.27-4.25-10.23-4.25-4.96 0-7.13 2-10.23 4.25-3.1 2.5-7.13 5.75-14.57 5.75s-11.47-3.25-14.57-5.75c-3.1-2.5-5.27-4.25-10.23-4.25-4.96 0-7.13 2-10.23 4.25-3.1 2.5-7.13 5.75-14.57 5.75s-11.47-3.25-14.57-5.75c-3.1-2.5-5.27-4.25-10.23-4.25-4.96 0-7.13 2-10.23 4.25-3.1 2.5-7.13 5.75-14.57 5.75s-11.47-3.25-14.57-5.75c-3.1-2.5-5.27-4.25-10.23-4.25-4.96 0-7.13 2-10.23 4.25-3.1 2.5-7.13 5.75-14.57 5.75s-11.47-3.25-14.57-5.75c-3.1-2.5-5.27-4.25-10.23-4.25-1.567-4.545-1.372-6.817.586-6.817H492.9c2.543 0 3.925 2.272 4.147 6.817-4.962 0-7.132 2-10.232 4.25-3.1 2.5-7.13 5.75-14.57 5.75z" transform="translate(0.000000, -630.000000) translate(-54.000000, 630.000000) translate(372.523663, 8.408331) scale(1, -1) translate(-372.523663, -8.408331)"/>
            </g>
        </g>
    </g>
</svg>
